<svg width="353" height="134" viewBox="0 0 353 134" fill="none" xmlns="http://www.w3.org/2000/svg">
<rect x="0.5" y="0.5" width="352" height="133" rx="15.5" fill="#18AEAC" fill-opacity="0.05"/>
<rect x="0.5" y="0.5" width="352" height="133" rx="15.5" stroke="#18AEAC" stroke-dasharray="6 6"/>
<path d="M176.506 63.5418L176.5 50.7918M188.2 58.8073C189.335 58.0096 190.186 56.8711 190.629 55.5572C191.073 54.2432 191.086 52.8221 190.667 51.5001C189.808 48.7872 187.175 47.3004 184.329 47.3032H182.685C182.293 45.7737 181.559 44.353 180.538 43.1483C179.517 41.9436 178.236 40.9861 176.792 40.3481C175.347 39.7101 173.777 39.408 172.199 39.4647C170.621 39.5215 169.076 39.9355 167.681 40.6756C166.287 41.4157 165.078 42.4626 164.146 43.7375C163.214 45.0124 162.584 46.4821 162.302 48.0359C162.021 49.5897 162.096 51.1871 162.521 52.7078C162.946 54.2286 163.711 55.633 164.757 56.8154" stroke="#344054" stroke-width="2" stroke-linecap="round" stroke-linejoin="round"/>
<path d="M181.008 54.0752L176.5 49.5674L171.992 54.0752" stroke="#344054" stroke-width="2" stroke-linecap="round" stroke-linejoin="round"/>
<path d="M152.917 82.114C153.159 82.114 153.332 82.0627 153.435 81.96C153.547 81.848 153.603 81.652 153.603 81.372V77.83C153.603 77.7367 153.649 77.69 153.743 77.69H155.031C155.124 77.69 155.171 77.7367 155.171 77.83V81.736C155.171 82.3427 155.045 82.7907 154.793 83.08C154.541 83.36 154.111 83.5 153.505 83.5H146.519C145.931 83.5 145.511 83.36 145.259 83.08C145.007 82.7907 144.881 82.3427 144.881 81.736V78.726C144.881 78.6327 144.927 78.586 145.021 78.586H146.309C146.402 78.586 146.449 78.6327 146.449 78.726V81.372C146.449 81.652 146.5 81.848 146.603 81.96C146.715 82.0627 146.887 82.114 147.121 82.114H152.917ZM150.397 77.116C150.303 77.116 150.257 77.0693 150.257 76.976V75.772C150.257 75.6787 150.303 75.632 150.397 75.632H151.573C151.666 75.632 151.713 75.6787 151.713 75.772V76.976C151.713 77.0693 151.666 77.116 151.573 77.116H150.397ZM148.577 77.116C148.483 77.116 148.437 77.0693 148.437 76.976V75.772C148.437 75.6787 148.483 75.632 148.577 75.632H149.753C149.846 75.632 149.893 75.6787 149.893 75.772V76.976C149.893 77.0693 149.846 77.116 149.753 77.116H148.577ZM156.793 74.12C156.793 74.0267 156.839 73.98 156.933 73.98H158.235C158.328 73.98 158.375 74.0267 158.375 74.12V81.372C158.375 81.652 158.426 81.848 158.529 81.96C158.641 82.0627 158.813 82.114 159.047 82.114H159.537C159.723 82.114 159.863 82.17 159.957 82.282C160.05 82.3847 160.097 82.5667 160.097 82.828C160.097 83.1173 160.05 83.304 159.957 83.388C159.873 83.4627 159.733 83.5 159.537 83.5H158.431C157.843 83.5 157.423 83.36 157.171 83.08C156.919 82.7907 156.793 82.3427 156.793 81.736V74.12ZM163.299 77.438C164.251 77.438 164.979 77.6667 165.483 78.124C165.987 78.572 166.239 79.174 166.239 79.93C166.239 80.3873 166.132 80.8073 165.917 81.19C165.712 81.5633 165.432 81.8713 165.077 82.114H167.065C167.252 82.114 167.392 82.1607 167.485 82.254C167.579 82.338 167.625 82.5107 167.625 82.772C167.625 83.0427 167.579 83.234 167.485 83.346C167.401 83.4487 167.261 83.5 167.065 83.5H165.119C164.783 83.5 164.466 83.486 164.167 83.458C163.869 83.43 163.584 83.332 163.313 83.164C163.005 83.332 162.674 83.43 162.319 83.458C161.974 83.486 161.666 83.5 161.395 83.5H159.533C159.347 83.5 159.207 83.444 159.113 83.332C159.02 83.22 158.973 83.038 158.973 82.786C158.973 82.5153 159.02 82.338 159.113 82.254C159.197 82.1607 159.337 82.114 159.533 82.114H161.507C161.162 81.8713 160.882 81.5633 160.667 81.19C160.462 80.8073 160.359 80.3873 160.359 79.93C160.359 79.174 160.611 78.572 161.115 78.124C161.619 77.6667 162.347 77.438 163.299 77.438ZM163.299 78.684C162.935 78.684 162.618 78.8007 162.347 79.034C162.086 79.258 161.955 79.594 161.955 80.042C161.955 80.518 162.086 80.9053 162.347 81.204C162.609 81.4933 162.926 81.7173 163.299 81.876C163.663 81.7173 163.976 81.4933 164.237 81.204C164.499 80.9053 164.629 80.518 164.629 80.042C164.629 79.594 164.499 79.258 164.237 79.034C163.976 78.8007 163.663 78.684 163.299 78.684ZM162.641 76.29C162.548 76.29 162.501 76.2433 162.501 76.15V74.946C162.501 74.8527 162.548 74.806 162.641 74.806H163.985C164.079 74.806 164.125 74.8527 164.125 74.946V76.15C164.125 76.2433 164.079 76.29 163.985 76.29H162.641ZM167.752 82.114C167.986 82.114 168.154 82.0627 168.256 81.96C168.368 81.848 168.424 81.652 168.424 81.372V74.12C168.424 74.0267 168.471 73.98 168.564 73.98H169.866C169.96 73.98 170.006 74.0267 170.006 74.12V81.246C170.006 81.526 170.109 81.7407 170.314 81.89C170.529 82.0393 170.814 82.114 171.168 82.114H171.406C171.593 82.114 171.733 82.1653 171.826 82.268C171.92 82.3707 171.966 82.5433 171.966 82.786C171.966 83.0567 171.92 83.2433 171.826 83.346C171.742 83.4487 171.602 83.5 171.406 83.5C171.042 83.5 170.725 83.458 170.454 83.374C170.184 83.2807 169.969 83.0847 169.81 82.786C169.68 83.0473 169.488 83.234 169.236 83.346C168.994 83.4487 168.662 83.5 168.242 83.5H167.066C166.88 83.5 166.74 83.458 166.646 83.374C166.553 83.2807 166.506 83.0847 166.506 82.786C166.506 82.534 166.553 82.3613 166.646 82.268C166.73 82.1653 166.87 82.114 167.066 82.114H167.752ZM175.684 83.598C175.218 83.598 174.798 83.5373 174.424 83.416C174.051 83.2853 173.738 83.0753 173.486 82.786C173.393 82.9353 173.281 83.0567 173.15 83.15C173.02 83.2433 172.884 83.318 172.744 83.374C172.604 83.4207 172.46 83.4533 172.31 83.472C172.161 83.4907 172.021 83.5 171.89 83.5H171.4C171.214 83.5 171.074 83.4487 170.98 83.346C170.887 83.234 170.84 83.052 170.84 82.8C170.84 82.5293 170.887 82.3473 170.98 82.254C171.064 82.1607 171.204 82.114 171.4 82.114H171.946C172.049 82.114 172.152 82.0953 172.254 82.058C172.357 82.0113 172.45 81.9413 172.534 81.848C172.618 81.7453 172.688 81.6147 172.744 81.456C172.8 81.288 172.828 81.0827 172.828 80.84C172.819 80.7653 172.814 80.6953 172.814 80.63C172.814 80.5647 172.814 80.4947 172.814 80.42C172.824 79.8787 172.898 79.4213 173.038 79.048C173.188 78.6653 173.388 78.3573 173.64 78.124C173.902 77.8813 174.205 77.7087 174.55 77.606C174.896 77.494 175.274 77.438 175.684 77.438C176.095 77.438 176.478 77.494 176.832 77.606C177.187 77.718 177.49 77.8953 177.742 78.138C178.004 78.3807 178.204 78.7027 178.344 79.104C178.494 79.5053 178.568 79.9907 178.568 80.56C178.568 81.1107 178.498 81.5773 178.358 81.96C178.218 82.3427 178.022 82.6553 177.77 82.898C177.518 83.1407 177.215 83.318 176.86 83.43C176.506 83.542 176.114 83.598 175.684 83.598ZM175.684 78.838C175.236 78.838 174.905 78.9827 174.69 79.272C174.476 79.5613 174.368 79.9813 174.368 80.532C174.368 81.1293 174.476 81.5587 174.69 81.82C174.905 82.0813 175.236 82.212 175.684 82.212C176.142 82.212 176.478 82.0813 176.692 81.82C176.907 81.5493 177.014 81.12 177.014 80.532C177.014 79.4027 176.571 78.838 175.684 78.838ZM190.437 76.29C190.344 76.29 190.297 76.2433 190.297 76.15V74.946C190.297 74.8527 190.344 74.806 190.437 74.806H191.613C191.707 74.806 191.753 74.8527 191.753 74.946V76.15C191.753 76.2433 191.707 76.29 191.613 76.29H190.437ZM188.617 76.29C188.524 76.29 188.477 76.2433 188.477 76.15V74.946C188.477 74.8527 188.524 74.806 188.617 74.806H189.793C189.887 74.806 189.933 74.8527 189.933 74.946V76.15C189.933 76.2433 189.887 76.29 189.793 76.29H188.617ZM189.961 84.9C190.521 84.9 190.904 84.83 191.109 84.69C191.315 84.55 191.417 84.3633 191.417 84.13V83.5H189.989C189.121 83.5 188.445 83.276 187.959 82.828C187.474 82.38 187.231 81.624 187.231 80.56C187.231 79.9907 187.306 79.51 187.455 79.118C187.614 78.7167 187.824 78.3947 188.085 78.152C188.347 77.9 188.65 77.718 188.995 77.606C189.341 77.494 189.705 77.438 190.087 77.438C190.498 77.438 190.881 77.494 191.235 77.606C191.59 77.718 191.893 77.8953 192.145 78.138C192.407 78.3807 192.607 78.7027 192.747 79.104C192.897 79.496 192.971 79.9767 192.971 80.546V82.114H193.937C194.124 82.114 194.264 82.1653 194.357 82.268C194.451 82.3613 194.497 82.5387 194.497 82.8C194.497 83.0707 194.451 83.2573 194.357 83.36C194.273 83.4533 194.133 83.5 193.937 83.5H192.971V84.27C192.971 84.5593 192.915 84.83 192.803 85.082C192.701 85.334 192.537 85.5487 192.313 85.726C192.089 85.9127 191.8 86.0573 191.445 86.16C191.091 86.272 190.661 86.328 190.157 86.328H186.755C185.542 86.328 184.637 86.048 184.039 85.488C183.451 84.928 183.157 84.1673 183.157 83.206C183.157 82.9447 183.181 82.6833 183.227 82.422C183.283 82.1513 183.353 81.8947 183.437 81.652C183.521 81.4 183.615 81.1667 183.717 80.952C183.829 80.728 183.946 80.532 184.067 80.364C184.114 80.2893 184.179 80.28 184.263 80.336L185.369 80.91C185.444 80.9567 185.458 81.0173 185.411 81.092C185.253 81.3533 185.103 81.6567 184.963 82.002C184.833 82.3473 184.767 82.702 184.767 83.066C184.767 83.4207 184.828 83.7147 184.949 83.948C185.08 84.1813 185.248 84.368 185.453 84.508C185.659 84.648 185.892 84.746 186.153 84.802C186.415 84.8673 186.681 84.9 186.951 84.9H189.961ZM190.101 78.838C189.681 78.838 189.355 78.9873 189.121 79.286C188.888 79.5847 188.771 80 188.771 80.532C188.771 81.12 188.893 81.5307 189.135 81.764C189.378 81.9973 189.719 82.114 190.157 82.114H191.403V80.518C191.403 79.9673 191.296 79.552 191.081 79.272C190.867 78.9827 190.54 78.838 190.101 78.838ZM197.153 76.29C197.06 76.29 197.013 76.2433 197.013 76.15V74.946C197.013 74.8527 197.06 74.806 197.153 74.806H198.497C198.591 74.806 198.637 74.8527 198.637 74.946V76.15C198.637 76.2433 198.591 76.29 198.497 76.29H197.153ZM193.933 83.5C193.737 83.5 193.597 83.4533 193.513 83.36C193.42 83.2667 193.373 83.0753 193.373 82.786C193.373 82.5433 193.42 82.3707 193.513 82.268C193.607 82.1653 193.747 82.114 193.933 82.114H195.263C195.049 81.7127 194.941 81.1947 194.941 80.56C194.941 79.9907 195.016 79.5053 195.165 79.104C195.324 78.7027 195.534 78.3807 195.795 78.138C196.066 77.8953 196.374 77.718 196.719 77.606C197.074 77.494 197.443 77.438 197.825 77.438C198.236 77.438 198.619 77.494 198.973 77.606C199.328 77.718 199.631 77.8953 199.883 78.138C200.145 78.3807 200.345 78.7027 200.485 79.104C200.635 79.5053 200.709 79.9907 200.709 80.56C200.709 81.1107 200.639 81.5727 200.499 81.946C200.359 82.3193 200.163 82.6227 199.911 82.856C199.659 83.0893 199.356 83.2573 199.001 83.36C198.647 83.4533 198.255 83.5 197.825 83.5H193.933ZM197.825 78.838C197.396 78.838 197.069 78.9827 196.845 79.272C196.621 79.552 196.509 79.9487 196.509 80.462C196.509 81.078 196.617 81.512 196.831 81.764C197.046 82.0067 197.377 82.128 197.825 82.128C198.283 82.128 198.619 82.0113 198.833 81.778C199.048 81.5353 199.155 81.12 199.155 80.532C199.155 79.4027 198.712 78.838 197.825 78.838ZM201.605 86.328C201.512 86.328 201.465 86.2813 201.465 86.188V85.068C201.465 84.9747 201.512 84.928 201.605 84.928H201.913C202.305 84.928 202.585 84.83 202.753 84.634C202.931 84.438 203.019 84.1393 203.019 83.738V77.83C203.019 77.7367 203.066 77.69 203.159 77.69H204.461C204.555 77.69 204.601 77.7367 204.601 77.83V83.766C204.601 85.474 203.775 86.328 202.123 86.328H201.605ZM207.949 83.36C207.949 83.4533 207.902 83.5 207.809 83.5H206.507C206.414 83.5 206.367 83.4533 206.367 83.36V74.12C206.367 74.0267 206.414 73.98 206.507 73.98H207.809C207.902 73.98 207.949 74.0267 207.949 74.12V83.36Z" fill="#344054"/>
<path d="M79.2797 100.388C78.7997 99.66 78.4397 98.88 78.1997 98.048C77.9677 97.216 77.8517 96.388 77.8517 95.564C77.8517 94.74 77.9677 93.912 78.1997 93.08C78.4397 92.248 78.7997 91.468 79.2797 90.74C79.3357 90.66 79.3997 90.62 79.4717 90.62H79.8917C79.9797 90.62 80.0037 90.66 79.9637 90.74C79.6037 91.468 79.3237 92.248 79.1237 93.08C78.9237 93.912 78.8237 94.74 78.8237 95.564C78.8237 96.388 78.9237 97.22 79.1237 98.06C79.3237 98.9 79.6037 99.676 79.9637 100.388C80.0037 100.468 79.9797 100.508 79.8917 100.508H79.4717C79.3997 100.508 79.3357 100.468 79.2797 100.388ZM88.5964 97.748C88.5964 98.02 88.6924 98.224 88.8844 98.36C89.0844 98.496 89.3484 98.564 89.6764 98.564H89.8084C89.9684 98.564 90.0884 98.6 90.1684 98.672C90.2484 98.736 90.2884 98.848 90.2884 99.008C90.2884 99.216 90.2484 99.352 90.1684 99.416C90.0964 99.472 89.9764 99.5 89.8084 99.5H89.5564C89.2844 99.5 89.0404 99.444 88.8244 99.332C88.6084 99.212 88.4564 99.036 88.3684 98.804C88.2324 99.068 88.0444 99.252 87.8044 99.356C87.5644 99.452 87.2524 99.5 86.8684 99.5H84.2044C84.1244 99.5 84.0844 99.46 84.0844 99.38V98.684C84.0844 98.604 84.1244 98.564 84.2044 98.564H86.4964C86.7204 98.564 86.9004 98.548 87.0364 98.516C87.1724 98.476 87.2764 98.416 87.3484 98.336C87.4204 98.248 87.4684 98.136 87.4924 98C87.5164 97.864 87.5284 97.692 87.5284 97.484V96.524C87.5284 95.716 87.0724 95.312 86.1604 95.312H84.7684C84.6884 95.312 84.6484 95.272 84.6484 95.192V94.496C84.6484 94.416 84.6884 94.376 84.7684 94.376H86.5324C87.1404 94.376 87.6364 94.548 88.0204 94.892C88.4044 95.236 88.5964 95.776 88.5964 96.512V97.748ZM92.6185 95.312C92.3465 95.312 92.0945 95.368 91.8625 95.48C91.6385 95.592 91.4385 95.744 91.2625 95.936C91.2145 95.992 91.1585 95.996 91.0945 95.948L90.5665 95.516C90.4945 95.46 90.4825 95.404 90.5305 95.348C90.7545 95.068 91.0305 94.836 91.3585 94.652C91.6945 94.468 92.1025 94.376 92.5825 94.376C93.1345 94.376 93.5865 94.464 93.9385 94.64C94.2905 94.808 94.5665 95.032 94.7665 95.312C94.9745 95.592 95.1185 95.916 95.1985 96.284C95.2785 96.652 95.3185 97.032 95.3185 97.424C95.3185 97.824 95.2825 98.156 95.2105 98.42C95.1465 98.684 95.0425 98.896 94.8985 99.056C94.7625 99.216 94.5825 99.332 94.3585 99.404C94.1425 99.468 93.8865 99.5 93.5905 99.5H89.8105C89.4905 99.5 89.3305 99.34 89.3305 99.02C89.3305 98.82 89.3705 98.696 89.4505 98.648C89.5225 98.592 89.6425 98.564 89.8105 98.564H93.2185C93.4425 98.564 93.6225 98.548 93.7585 98.516C93.8945 98.476 93.9985 98.412 94.0705 98.324C94.1425 98.236 94.1905 98.12 94.2145 97.976C94.2385 97.824 94.2505 97.64 94.2505 97.424C94.2505 97.112 94.2225 96.828 94.1665 96.572C94.1105 96.308 94.0185 96.084 93.8905 95.9C93.7705 95.708 93.6065 95.564 93.3985 95.468C93.1905 95.364 92.9305 95.312 92.6185 95.312ZM92.4025 101.708C92.3225 101.708 92.2825 101.668 92.2825 101.588V100.712C92.2825 100.632 92.3225 100.592 92.4025 100.592H93.2185C93.2985 100.592 93.3385 100.632 93.3385 100.712V101.588C93.3385 101.668 93.2985 101.708 93.2185 101.708H92.4025ZM97.6546 101.888C97.5746 101.888 97.5346 101.848 97.5346 101.768V101.072C97.5346 100.992 97.5746 100.952 97.6546 100.952H99.0946C99.2546 100.952 99.4026 100.932 99.5386 100.892C99.6746 100.86 99.7906 100.8 99.8866 100.712C99.9906 100.632 100.071 100.516 100.127 100.364C100.183 100.22 100.211 100.036 100.211 99.812V99.5H98.9266C98.5746 99.5 98.2546 99.46 97.9666 99.38C97.6866 99.292 97.4466 99.156 97.2466 98.972C97.0466 98.78 96.8946 98.528 96.7906 98.216C96.6866 97.904 96.6346 97.52 96.6346 97.064C96.6346 96.608 96.6946 96.212 96.8146 95.876C96.9346 95.532 97.0986 95.252 97.3066 95.036C97.5226 94.812 97.7706 94.648 98.0506 94.544C98.3306 94.432 98.6306 94.376 98.9506 94.376C99.6626 94.376 100.219 94.584 100.619 95C101.019 95.408 101.219 96.072 101.219 96.992V99.788C101.219 100.164 101.167 100.484 101.063 100.748C100.967 101.012 100.827 101.228 100.643 101.396C100.467 101.564 100.251 101.688 99.9946 101.768C99.7386 101.848 99.4546 101.888 99.1426 101.888H97.6546ZM98.9506 95.312C98.5426 95.312 98.2226 95.472 97.9906 95.792C97.7586 96.112 97.6426 96.536 97.6426 97.064C97.6426 97.632 97.7546 98.024 97.9786 98.24C98.2106 98.456 98.5506 98.564 98.9986 98.564H100.211V96.992C100.211 96.464 100.111 96.052 99.9106 95.756C99.7186 95.46 99.3986 95.312 98.9506 95.312ZM106.201 96.8C106.233 96.744 106.289 96.74 106.369 96.788L107.029 97.148C107.093 97.188 107.105 97.24 107.065 97.304C106.921 97.528 106.781 97.804 106.645 98.132C106.517 98.46 106.453 98.804 106.453 99.164C106.453 99.508 106.509 99.792 106.621 100.016C106.741 100.248 106.893 100.428 107.077 100.556C107.261 100.692 107.461 100.788 107.677 100.844C107.893 100.9 108.105 100.928 108.313 100.928C108.825 100.928 109.245 100.796 109.573 100.532C109.901 100.268 110.065 99.84 110.065 99.248V95.744C110.065 95.664 110.105 95.624 110.185 95.624H110.953C111.033 95.624 111.073 95.664 111.073 95.744V99.26C111.073 100.084 110.829 100.728 110.341 101.192C109.861 101.656 109.165 101.888 108.253 101.888C107.821 101.888 107.429 101.828 107.077 101.708C106.733 101.596 106.437 101.428 106.189 101.204C105.949 100.98 105.761 100.704 105.625 100.376C105.489 100.056 105.421 99.684 105.421 99.26C105.421 98.788 105.497 98.336 105.649 97.904C105.809 97.464 105.993 97.096 106.201 96.8ZM108.253 95.324C108.173 95.324 108.133 95.284 108.133 95.204V94.328C108.133 94.248 108.173 94.208 108.253 94.208H109.069C109.149 94.208 109.189 94.248 109.189 94.328V95.204C109.189 95.284 109.149 95.324 109.069 95.324H108.253ZM113.702 99.38C113.702 99.46 113.662 99.5 113.582 99.5H112.814C112.734 99.5 112.694 99.46 112.694 99.38V91.46C112.694 91.38 112.734 91.34 112.814 91.34H113.582C113.662 91.34 113.702 91.38 113.702 91.46V99.38ZM117.972 100.388C118.332 99.676 118.612 98.9 118.812 98.06C119.012 97.22 119.112 96.388 119.112 95.564C119.112 94.74 119.012 93.912 118.812 93.08C118.612 92.248 118.332 91.468 117.972 90.74C117.932 90.66 117.956 90.62 118.044 90.62H118.464C118.536 90.62 118.6 90.66 118.656 90.74C119.136 91.468 119.492 92.248 119.724 93.08C119.964 93.912 120.084 94.74 120.084 95.564C120.084 96.388 119.964 97.216 119.724 98.048C119.492 98.88 119.136 99.66 118.656 100.388C118.6 100.468 118.536 100.508 118.464 100.508H118.044C117.956 100.508 117.932 100.468 117.972 100.388ZM131.297 98.564C131.505 98.564 131.653 98.52 131.741 98.432C131.837 98.336 131.885 98.168 131.885 97.928V94.712C131.885 94.632 131.925 94.592 132.005 94.592H132.773C132.853 94.592 132.893 94.632 132.893 94.712V97.988C132.893 98.508 132.785 98.892 132.569 99.14C132.353 99.38 131.985 99.5 131.465 99.5H125.693C125.189 99.5 124.829 99.38 124.613 99.14C124.397 98.892 124.289 98.508 124.289 97.988V95.48C124.289 95.4 124.329 95.36 124.409 95.36H125.177C125.257 95.36 125.297 95.4 125.297 95.48V97.928C125.297 98.168 125.341 98.336 125.429 98.432C125.525 98.52 125.673 98.564 125.873 98.564H131.297ZM128.933 94.112C128.853 94.112 128.813 94.072 128.813 93.992V93.116C128.813 93.036 128.853 92.996 128.933 92.996H129.749C129.829 92.996 129.869 93.036 129.869 93.116V93.992C129.869 94.072 129.829 94.112 129.749 94.112H128.933ZM127.469 94.112C127.389 94.112 127.349 94.072 127.349 93.992V93.116C127.349 93.036 127.389 92.996 127.469 92.996H128.285C128.365 92.996 128.405 93.036 128.405 93.116V93.992C128.405 94.072 128.365 94.112 128.285 94.112H127.469ZM137.552 98.564H138.956C139.156 98.564 139.3 98.52 139.388 98.432C139.484 98.336 139.532 98.168 139.532 97.928V91.46C139.532 91.38 139.572 91.34 139.652 91.34H140.42C140.5 91.34 140.54 91.38 140.54 91.46V97.904C140.58 98.128 140.692 98.296 140.876 98.408C141.068 98.512 141.312 98.564 141.608 98.564H141.74C141.9 98.564 142.02 98.6 142.1 98.672C142.18 98.736 142.22 98.848 142.22 99.008C142.22 99.216 142.18 99.352 142.1 99.416C142.028 99.472 141.908 99.5 141.74 99.5H141.488C141.24 99.5 141.02 99.452 140.828 99.356C140.636 99.252 140.484 99.096 140.372 98.888C140.188 99.296 139.776 99.5 139.136 99.5H134.18C134.1 99.5 134.06 99.46 134.06 99.38V98.684C134.06 98.604 134.1 98.564 134.18 98.564H136.544V93.152C136.544 93.072 136.584 93.032 136.664 93.032H137.432C137.512 93.032 137.552 93.072 137.552 93.152V98.564ZM141.736 99.5C141.576 99.5 141.456 99.472 141.376 99.416C141.296 99.36 141.256 99.248 141.256 99.08C141.256 98.88 141.296 98.744 141.376 98.672C141.448 98.6 141.568 98.564 141.736 98.564H142.564C142.764 98.564 142.908 98.52 142.996 98.432C143.092 98.336 143.14 98.168 143.14 97.928V94.712C143.14 94.632 143.18 94.592 143.26 94.592H144.028C144.108 94.592 144.148 94.632 144.148 94.712V97.988C144.148 98.508 144.04 98.892 143.824 99.14C143.608 99.38 143.248 99.5 142.744 99.5H141.736ZM143.716 101.732C143.636 101.732 143.596 101.692 143.596 101.612V100.736C143.596 100.656 143.636 100.616 143.716 100.616H144.532C144.612 100.616 144.652 100.656 144.652 100.736V101.612C144.652 101.692 144.612 101.732 144.532 101.732H143.716ZM142.252 101.732C142.172 101.732 142.132 101.692 142.132 101.612V100.736C142.132 100.656 142.172 100.616 142.252 100.616H143.068C143.148 100.616 143.188 100.656 143.188 100.736V101.612C143.188 101.692 143.148 101.732 143.068 101.732H142.252ZM150.249 97.748C150.249 98.02 150.345 98.224 150.537 98.36C150.737 98.496 151.001 98.564 151.329 98.564H151.461C151.621 98.564 151.741 98.6 151.821 98.672C151.901 98.736 151.941 98.848 151.941 99.008C151.941 99.216 151.901 99.352 151.821 99.416C151.749 99.472 151.629 99.5 151.461 99.5H151.209C150.937 99.5 150.693 99.444 150.477 99.332C150.261 99.212 150.109 99.036 150.021 98.804C149.885 99.068 149.697 99.252 149.457 99.356C149.217 99.452 148.905 99.5 148.521 99.5H145.857C145.777 99.5 145.737 99.46 145.737 99.38V98.684C145.737 98.604 145.777 98.564 145.857 98.564H148.149C148.373 98.564 148.553 98.548 148.689 98.516C148.825 98.476 148.929 98.416 149.001 98.336C149.073 98.248 149.121 98.136 149.145 98C149.169 97.864 149.181 97.692 149.181 97.484V96.524C149.181 95.716 148.725 95.312 147.813 95.312H146.421C146.341 95.312 146.301 95.272 146.301 95.192V94.496C146.301 94.416 146.341 94.376 146.421 94.376H148.185C148.793 94.376 149.289 94.548 149.673 94.892C150.057 95.236 150.249 95.776 150.249 96.512V97.748ZM154.727 94.376C155.583 94.376 156.215 94.544 156.623 94.88C157.031 95.216 157.235 95.672 157.235 96.248C157.235 96.504 157.191 96.752 157.103 96.992C157.023 97.224 156.915 97.44 156.779 97.64C156.651 97.832 156.503 98.008 156.335 98.168C156.175 98.32 156.015 98.444 155.855 98.54C155.911 98.556 155.967 98.564 156.023 98.564C156.087 98.564 156.151 98.564 156.215 98.564H157.979C158.139 98.564 158.259 98.592 158.339 98.648C158.419 98.704 158.459 98.816 158.459 98.984C158.459 99.184 158.419 99.32 158.339 99.392C158.267 99.464 158.147 99.5 157.979 99.5H156.287C155.999 99.5 155.723 99.476 155.459 99.428C155.203 99.372 154.959 99.272 154.727 99.128C154.463 99.272 154.183 99.372 153.887 99.428C153.591 99.476 153.327 99.5 153.095 99.5H151.463C151.143 99.5 150.983 99.34 150.983 99.02C150.983 98.82 151.023 98.696 151.103 98.648C151.175 98.592 151.295 98.564 151.463 98.564H153.011C153.115 98.564 153.251 98.56 153.419 98.552C153.595 98.536 153.799 98.496 154.031 98.432C153.967 98.112 153.879 97.84 153.767 97.616C153.663 97.392 153.539 97.196 153.395 97.028C153.251 96.852 153.091 96.7 152.915 96.572C152.747 96.444 152.575 96.316 152.399 96.188C152.327 96.14 152.279 96.1 152.255 96.068C152.239 96.028 152.231 95.988 152.231 95.948V95.228C152.231 95.116 152.271 95.036 152.351 94.988C152.447 94.932 152.571 94.868 152.723 94.796C152.883 94.724 153.063 94.656 153.263 94.592C153.471 94.528 153.699 94.476 153.947 94.436C154.195 94.396 154.455 94.376 154.727 94.376ZM154.727 95.312C154.367 95.312 154.051 95.352 153.779 95.432C153.507 95.504 153.327 95.568 153.239 95.624C153.647 95.856 154.003 96.18 154.307 96.596C154.619 97.012 154.843 97.508 154.979 98.084C155.107 98.004 155.243 97.904 155.387 97.784C155.531 97.656 155.659 97.52 155.771 97.376C155.891 97.224 155.987 97.06 156.059 96.884C156.139 96.7 156.179 96.512 156.179 96.32C156.179 96.12 156.139 95.956 156.059 95.828C155.987 95.7 155.887 95.6 155.759 95.528C155.631 95.448 155.475 95.392 155.291 95.36C155.115 95.328 154.927 95.312 154.727 95.312ZM158.063 99.5C157.903 99.5 157.783 99.472 157.703 99.416C157.623 99.36 157.583 99.248 157.583 99.08C157.583 98.88 157.623 98.744 157.703 98.672C157.775 98.6 157.895 98.564 158.063 98.564H158.879C159.079 98.564 159.223 98.52 159.311 98.432C159.407 98.336 159.455 98.168 159.455 97.928V94.712C159.455 94.632 159.495 94.592 159.575 94.592H160.343C160.423 94.592 160.463 94.632 160.463 94.712V97.748C160.463 98.02 160.559 98.224 160.751 98.36C160.951 98.496 161.215 98.564 161.543 98.564H161.687C161.847 98.564 161.967 98.6 162.047 98.672C162.127 98.736 162.167 98.848 162.167 99.008C162.167 99.216 162.127 99.352 162.047 99.416C161.975 99.472 161.855 99.5 161.687 99.5H161.423C161.167 99.5 160.943 99.448 160.751 99.344C160.559 99.24 160.411 99.084 160.307 98.876C160.107 99.292 159.691 99.5 159.059 99.5H158.063ZM160.259 93.404C160.179 93.404 160.139 93.364 160.139 93.284V92.408C160.139 92.328 160.179 92.288 160.259 92.288H161.075C161.155 92.288 161.195 92.328 161.195 92.408V93.284C161.195 93.364 161.155 93.404 161.075 93.404H160.259ZM158.795 93.404C158.715 93.404 158.675 93.364 158.675 93.284V92.408C158.675 92.328 158.715 92.288 158.795 92.288H159.611C159.691 92.288 159.731 92.328 159.731 92.408V93.284C159.731 93.364 159.691 93.404 159.611 93.404H158.795ZM161.682 99.5C161.522 99.5 161.402 99.472 161.322 99.416C161.242 99.36 161.202 99.248 161.202 99.08C161.202 98.88 161.242 98.744 161.322 98.672C161.394 98.6 161.514 98.564 161.682 98.564H162.438C162.638 98.564 162.782 98.52 162.87 98.432C162.966 98.336 163.014 98.168 163.014 97.928V91.46C163.014 91.38 163.054 91.34 163.134 91.34H163.902C163.982 91.34 164.022 91.38 164.022 91.46V97.748C164.022 98.02 164.118 98.224 164.31 98.36C164.51 98.496 164.774 98.564 165.102 98.564H165.246C165.406 98.564 165.526 98.6 165.606 98.672C165.686 98.736 165.726 98.848 165.726 99.008C165.726 99.216 165.686 99.352 165.606 99.416C165.534 99.472 165.414 99.5 165.246 99.5H164.982C164.726 99.5 164.502 99.448 164.31 99.344C164.118 99.24 163.97 99.084 163.866 98.876C163.666 99.292 163.25 99.5 162.618 99.5H161.682ZM165.232 99.5C165.072 99.5 164.952 99.472 164.872 99.416C164.792 99.36 164.752 99.248 164.752 99.08C164.752 98.88 164.792 98.744 164.872 98.672C164.944 98.6 165.064 98.564 165.232 98.564H165.988C166.188 98.564 166.332 98.52 166.42 98.432C166.516 98.336 166.564 98.168 166.564 97.928V91.46C166.564 91.38 166.604 91.34 166.684 91.34H167.452C167.532 91.34 167.572 91.38 167.572 91.46V97.988C167.572 98.508 167.464 98.892 167.248 99.14C167.032 99.38 166.672 99.5 166.168 99.5H165.232ZM175.455 99.584C175.039 99.584 174.671 99.516 174.351 99.38C174.039 99.244 173.783 99.028 173.583 98.732C173.503 98.86 173.407 98.952 173.295 99.008C173.191 99.064 173.087 99.124 172.983 99.188C172.887 99.252 172.803 99.336 172.731 99.44C172.659 99.544 172.623 99.708 172.623 99.932V101.888H171.615V99.68C171.615 99.432 171.651 99.228 171.723 99.068C171.795 98.9 171.887 98.764 171.999 98.66C172.111 98.548 172.231 98.456 172.359 98.384C172.495 98.312 172.619 98.24 172.731 98.168C172.851 98.096 172.951 98.016 173.031 97.928C173.119 97.832 173.171 97.708 173.187 97.556C173.179 97.468 173.171 97.38 173.163 97.292C173.163 97.196 173.163 97.096 173.163 96.992C173.163 96.072 173.367 95.408 173.775 95C174.183 94.584 174.743 94.376 175.455 94.376C176.167 94.376 176.727 94.584 177.135 95C177.543 95.408 177.747 96.072 177.747 96.992C177.747 97.08 177.743 97.168 177.735 97.256C177.735 97.344 177.731 97.428 177.723 97.508C177.731 97.916 177.811 98.196 177.963 98.348C178.123 98.492 178.291 98.564 178.467 98.564H178.803C178.963 98.564 179.083 98.6 179.163 98.672C179.243 98.736 179.283 98.848 179.283 99.008C179.283 99.216 179.243 99.352 179.163 99.416C179.091 99.472 178.971 99.5 178.803 99.5H178.551C178.439 99.5 178.319 99.496 178.191 99.488C178.063 99.472 177.935 99.444 177.807 99.404C177.687 99.364 177.571 99.308 177.459 99.236C177.347 99.156 177.251 99.052 177.171 98.924C176.971 99.156 176.727 99.324 176.439 99.428C176.151 99.532 175.823 99.584 175.455 99.584ZM175.455 95.312C175.007 95.312 174.679 95.46 174.471 95.756C174.271 96.052 174.171 96.464 174.171 96.992C174.171 97.568 174.271 97.988 174.471 98.252C174.679 98.516 175.007 98.648 175.455 98.648C175.903 98.648 176.227 98.516 176.427 98.252C176.635 97.988 176.739 97.568 176.739 96.992C176.739 96.464 176.635 96.052 176.427 95.756C176.227 95.46 175.903 95.312 175.455 95.312ZM184.323 98.564C184.403 98.564 184.443 98.604 184.443 98.684V99.38C184.443 99.46 184.403 99.5 184.323 99.5H178.791C178.471 99.5 178.311 99.34 178.311 99.02C178.311 98.82 178.351 98.696 178.431 98.648C178.503 98.592 178.623 98.564 178.791 98.564H180.159C179.975 98.38 179.819 98.148 179.691 97.868C179.563 97.588 179.499 97.252 179.499 96.86C179.499 96.612 179.535 96.344 179.607 96.056C179.679 95.76 179.811 95.488 180.003 95.24C180.195 94.992 180.455 94.788 180.783 94.628C181.119 94.46 181.547 94.376 182.067 94.376C182.539 94.376 182.947 94.464 183.291 94.64C183.635 94.808 183.911 95.044 184.119 95.348C184.159 95.412 184.147 95.468 184.083 95.516L183.555 95.948C183.491 95.996 183.435 95.992 183.387 95.936C183.027 95.52 182.575 95.312 182.031 95.312C181.535 95.312 181.167 95.46 180.927 95.756C180.687 96.044 180.567 96.408 180.567 96.848C180.567 97.144 180.615 97.396 180.711 97.604C180.807 97.812 180.915 97.984 181.035 98.12C181.163 98.256 181.291 98.36 181.419 98.432C181.547 98.496 181.647 98.54 181.719 98.564H184.323ZM186.827 99.38C186.827 99.46 186.787 99.5 186.707 99.5H185.939C185.859 99.5 185.819 99.46 185.819 99.38V91.46C185.819 91.38 185.859 91.34 185.939 91.34H186.707C186.787 91.34 186.827 91.38 186.827 91.46V99.38ZM192.858 97.448C192.858 97.848 192.822 98.18 192.75 98.444C192.686 98.708 192.582 98.92 192.438 99.08C192.302 99.232 192.126 99.34 191.91 99.404C191.694 99.468 191.434 99.5 191.13 99.5H188.466C188.386 99.5 188.346 99.46 188.346 99.38V98.684C188.346 98.604 188.386 98.564 188.466 98.564H190.758C190.982 98.564 191.162 98.548 191.298 98.516C191.434 98.476 191.538 98.416 191.61 98.336C191.682 98.248 191.73 98.136 191.754 98C191.778 97.864 191.79 97.692 191.79 97.484V96.524C191.79 95.716 191.334 95.312 190.422 95.312H189.03C188.95 95.312 188.91 95.272 188.91 95.192V94.496C188.91 94.416 188.95 94.376 189.03 94.376H190.794C191.402 94.376 191.898 94.548 192.282 94.892C192.666 95.236 192.858 95.776 192.858 96.512V97.448ZM204.756 94.376C205.164 94.376 205.516 94.432 205.812 94.544C206.108 94.648 206.352 94.796 206.544 94.988C206.744 95.18 206.892 95.412 206.988 95.684C207.084 95.948 207.132 96.24 207.132 96.56C207.132 96.968 207.036 97.348 206.844 97.7C206.66 98.052 206.4 98.344 206.064 98.576C206.104 98.568 206.164 98.564 206.244 98.564H207.912C208.072 98.564 208.192 98.592 208.272 98.648C208.352 98.704 208.392 98.816 208.392 98.984C208.392 99.184 208.352 99.32 208.272 99.392C208.2 99.464 208.08 99.5 207.912 99.5H206.316C206.028 99.5 205.756 99.488 205.5 99.464C205.244 99.44 205 99.356 204.768 99.212C204.504 99.356 204.22 99.44 203.916 99.464C203.62 99.488 203.356 99.5 203.124 99.5H198.372C197.868 99.5 197.508 99.38 197.292 99.14C197.076 98.892 196.968 98.508 196.968 97.988V95.48C196.968 95.4 197.008 95.36 197.088 95.36H197.856C197.936 95.36 197.976 95.4 197.976 95.48V97.928C197.976 98.168 198.02 98.336 198.108 98.432C198.204 98.52 198.352 98.564 198.552 98.564H203.436C203.108 98.332 202.848 98.044 202.656 97.7C202.472 97.348 202.38 96.968 202.38 96.56C202.38 96.24 202.428 95.948 202.524 95.684C202.62 95.412 202.764 95.18 202.956 94.988C203.156 94.796 203.404 94.648 203.7 94.544C203.996 94.432 204.348 94.376 204.756 94.376ZM204.756 95.312C204.372 95.312 204.056 95.424 203.808 95.648C203.56 95.872 203.436 96.196 203.436 96.62C203.436 97.052 203.564 97.416 203.82 97.712C204.076 98 204.388 98.216 204.756 98.36C205.124 98.216 205.436 98 205.692 97.712C205.948 97.416 206.076 97.052 206.076 96.62C206.076 96.196 205.952 95.872 205.704 95.648C205.456 95.424 205.14 95.312 204.756 95.312ZM204.348 93.404C204.268 93.404 204.228 93.364 204.228 93.284V92.408C204.228 92.328 204.268 92.288 204.348 92.288H205.164C205.244 92.288 205.284 92.328 205.284 92.408V93.284C205.284 93.364 205.244 93.404 205.164 93.404H204.348ZM207.912 99.5C207.752 99.5 207.632 99.472 207.552 99.416C207.472 99.36 207.432 99.248 207.432 99.08C207.432 98.88 207.472 98.744 207.552 98.672C207.624 98.6 207.744 98.564 207.912 98.564H208.668C208.868 98.564 209.012 98.52 209.1 98.432C209.196 98.336 209.244 98.168 209.244 97.928V91.46C209.244 91.38 209.284 91.34 209.364 91.34H210.132C210.212 91.34 210.252 91.38 210.252 91.46V97.748C210.252 98.02 210.348 98.224 210.54 98.36C210.74 98.496 211.004 98.564 211.332 98.564H211.476C211.636 98.564 211.756 98.6 211.836 98.672C211.916 98.736 211.956 98.848 211.956 99.008C211.956 99.216 211.916 99.352 211.836 99.416C211.764 99.472 211.644 99.5 211.476 99.5H211.212C210.956 99.5 210.732 99.448 210.54 99.344C210.348 99.24 210.2 99.084 210.096 98.876C209.896 99.292 209.48 99.5 208.848 99.5H207.912ZM215.087 99.584C214.711 99.584 214.379 99.532 214.091 99.428C213.803 99.316 213.559 99.144 213.359 98.912C213.191 99.168 212.975 99.332 212.711 99.404C212.447 99.468 212.203 99.5 211.979 99.5H211.463C211.143 99.5 210.983 99.34 210.983 99.02C210.983 98.82 211.023 98.696 211.103 98.648C211.175 98.592 211.295 98.564 211.463 98.564H212.063C212.151 98.564 212.239 98.548 212.327 98.516C212.415 98.476 212.495 98.416 212.567 98.336C212.639 98.248 212.695 98.136 212.735 98C212.783 97.856 212.807 97.68 212.807 97.472C212.799 97.392 212.795 97.316 212.795 97.244C212.795 97.164 212.795 97.08 212.795 96.992C212.795 96.072 212.999 95.408 213.407 95C213.815 94.584 214.375 94.376 215.087 94.376C215.799 94.376 216.359 94.584 216.767 95C217.175 95.408 217.379 96.072 217.379 96.992C217.379 97.448 217.323 97.84 217.211 98.168C217.107 98.496 216.955 98.764 216.755 98.972C216.563 99.18 216.323 99.336 216.035 99.44C215.755 99.536 215.439 99.584 215.087 99.584ZM215.087 95.312C214.639 95.312 214.311 95.46 214.103 95.756C213.903 96.052 213.803 96.464 213.803 96.992C213.803 97.568 213.903 97.988 214.103 98.252C214.311 98.516 214.639 98.648 215.087 98.648C215.535 98.648 215.859 98.516 216.059 98.252C216.267 97.988 216.371 97.568 216.371 96.992C216.371 96.464 216.267 96.052 216.059 95.756C215.859 95.46 215.535 95.312 215.087 95.312ZM229.392 99.5V100.208C229.392 100.416 229.352 100.62 229.272 100.82C229.192 101.028 229.06 101.208 228.876 101.36C228.7 101.52 228.464 101.648 228.168 101.744C227.88 101.84 227.528 101.888 227.112 101.888H224.304C223.368 101.888 222.656 101.652 222.168 101.18C221.68 100.716 221.436 100.076 221.436 99.26C221.436 98.788 221.512 98.336 221.664 97.904C221.824 97.464 222.008 97.096 222.216 96.8C222.248 96.744 222.304 96.74 222.384 96.788L223.044 97.148C223.108 97.188 223.12 97.24 223.08 97.304C222.936 97.528 222.796 97.804 222.66 98.132C222.532 98.46 222.468 98.804 222.468 99.164C222.468 99.492 222.52 99.768 222.624 99.992C222.736 100.224 222.884 100.408 223.068 100.544C223.252 100.68 223.46 100.776 223.692 100.832C223.932 100.896 224.184 100.928 224.448 100.928H227.1C227.58 100.928 227.912 100.856 228.096 100.712C228.288 100.568 228.384 100.396 228.384 100.196V99.5H227.1C226.748 99.5 226.428 99.456 226.14 99.368C225.86 99.272 225.62 99.128 225.42 98.936C225.22 98.736 225.068 98.476 224.964 98.156C224.86 97.836 224.808 97.448 224.808 96.992C224.808 96.536 224.868 96.144 224.988 95.816C225.108 95.48 225.272 95.208 225.48 95C225.688 94.784 225.932 94.628 226.212 94.532C226.492 94.428 226.788 94.376 227.1 94.376C227.812 94.376 228.372 94.584 228.78 95C229.188 95.408 229.392 96.072 229.392 96.992V98.564H230.232C230.392 98.564 230.512 98.6 230.592 98.672C230.672 98.736 230.712 98.848 230.712 99.008C230.712 99.216 230.672 99.352 230.592 99.416C230.52 99.472 230.4 99.5 230.232 99.5H229.392ZM227.1 95.312C226.692 95.312 226.376 95.46 226.152 95.756C225.928 96.052 225.816 96.464 225.816 96.992C225.816 97.568 225.928 97.976 226.152 98.216C226.384 98.448 226.724 98.564 227.172 98.564H228.384V96.992C228.384 96.464 228.28 96.052 228.072 95.756C227.872 95.46 227.548 95.312 227.1 95.312ZM227.4 93.404C227.32 93.404 227.28 93.364 227.28 93.284V92.408C227.28 92.328 227.32 92.288 227.4 92.288H228.216C228.296 92.288 228.336 92.328 228.336 92.408V93.284C228.336 93.364 228.296 93.404 228.216 93.404H227.4ZM225.936 93.404C225.856 93.404 225.816 93.364 225.816 93.284V92.408C225.816 92.328 225.856 92.288 225.936 92.288H226.752C226.832 92.288 226.872 92.328 226.872 92.408V93.284C226.872 93.364 226.832 93.404 226.752 93.404H225.936ZM230.227 99.5C230.059 99.5 229.939 99.472 229.867 99.416C229.787 99.352 229.747 99.216 229.747 99.008C229.747 98.848 229.787 98.736 229.867 98.672C229.947 98.6 230.067 98.564 230.227 98.564H231.583C231.351 98.172 231.235 97.648 231.235 96.992C231.235 96.536 231.291 96.144 231.403 95.816C231.523 95.48 231.687 95.208 231.895 95C232.103 94.784 232.343 94.628 232.615 94.532C232.895 94.428 233.199 94.376 233.527 94.376C234.239 94.376 234.799 94.584 235.207 95C235.615 95.408 235.819 96.072 235.819 96.992C235.819 97.448 235.763 97.836 235.651 98.156C235.547 98.476 235.395 98.736 235.195 98.936C235.003 99.128 234.763 99.272 234.475 99.368C234.195 99.456 233.879 99.5 233.527 99.5H230.227ZM233.527 95.312C233.103 95.312 232.783 95.456 232.567 95.744C232.351 96.032 232.243 96.424 232.243 96.92C232.243 97.512 232.343 97.936 232.543 98.192C232.751 98.44 233.079 98.564 233.527 98.564C233.975 98.564 234.299 98.448 234.499 98.216C234.707 97.976 234.811 97.568 234.811 96.992C234.811 96.464 234.707 96.052 234.499 95.756C234.299 95.46 233.975 95.312 233.527 95.312ZM233.107 93.404C233.027 93.404 232.987 93.364 232.987 93.284V92.408C232.987 92.328 233.027 92.288 233.107 92.288H233.923C234.003 92.288 234.043 92.328 234.043 92.408V93.284C234.043 93.364 234.003 93.404 233.923 93.404H233.107ZM236.626 101.888C236.546 101.888 236.506 101.848 236.506 101.768V101.072C236.506 100.992 236.546 100.952 236.626 100.952H236.902C237.55 100.952 237.874 100.612 237.874 99.932V94.712C237.874 94.632 237.914 94.592 237.994 94.592H238.762C238.842 94.592 238.882 94.632 238.882 94.712V99.908C238.882 100.556 238.718 101.048 238.39 101.384C238.062 101.72 237.582 101.888 236.95 101.888H236.626ZM241.506 99.38C241.506 99.46 241.466 99.5 241.386 99.5H240.618C240.538 99.5 240.498 99.46 240.498 99.38V91.46C240.498 91.38 240.538 91.34 240.618 91.34H241.386C241.466 91.34 241.506 91.38 241.506 91.46V99.38ZM252.797 98.564C253.005 98.564 253.153 98.52 253.241 98.432C253.337 98.336 253.385 98.168 253.385 97.928V91.46C253.385 91.38 253.425 91.34 253.505 91.34H254.273C254.353 91.34 254.393 91.38 254.393 91.46V97.748C254.393 98.02 254.489 98.224 254.681 98.36C254.881 98.496 255.145 98.564 255.473 98.564H255.605C255.765 98.564 255.885 98.6 255.965 98.672C256.045 98.736 256.085 98.848 256.085 99.008C256.085 99.216 256.045 99.352 255.965 99.416C255.893 99.472 255.773 99.5 255.605 99.5H255.353C255.097 99.5 254.873 99.448 254.681 99.344C254.489 99.24 254.341 99.084 254.237 98.876C254.133 99.084 253.977 99.24 253.769 99.344C253.569 99.448 253.301 99.5 252.965 99.5H247.193C246.689 99.5 246.329 99.38 246.113 99.14C245.897 98.892 245.789 98.508 245.789 97.988V95.48C245.789 95.4 245.829 95.36 245.909 95.36H246.677C246.757 95.36 246.797 95.4 246.797 95.48V97.928C246.797 98.168 246.841 98.336 246.929 98.432C247.025 98.52 247.173 98.564 247.373 98.564H252.797ZM250.349 95.624C250.445 95.624 250.505 95.604 250.529 95.564C250.553 95.524 250.565 95.46 250.565 95.372V95.132C250.565 94.932 250.457 94.832 250.241 94.832H249.593C249.481 94.832 249.425 94.776 249.425 94.664V94.46C249.425 94.42 249.429 94.392 249.437 94.376C249.453 94.352 249.469 94.332 249.485 94.316L250.433 93.188C250.473 93.148 250.509 93.132 250.541 93.14C250.581 93.14 250.609 93.148 250.625 93.164L250.865 93.368C250.905 93.408 250.917 93.448 250.901 93.488C250.893 93.52 250.881 93.548 250.865 93.572L250.253 94.292H250.445C250.917 94.292 251.153 94.572 251.153 95.132V95.348C251.153 95.668 251.097 95.884 250.985 95.996C250.881 96.108 250.705 96.164 250.457 96.164H249.101C249.021 96.164 248.981 96.124 248.981 96.044V95.744C248.981 95.664 249.021 95.624 249.101 95.624H250.349ZM255.691 99.5C255.531 99.5 255.411 99.472 255.331 99.416C255.251 99.36 255.211 99.248 255.211 99.08C255.211 98.88 255.251 98.744 255.331 98.672C255.403 98.6 255.523 98.564 255.691 98.564H256.447C256.647 98.564 256.791 98.52 256.879 98.432C256.975 98.336 257.023 98.168 257.023 97.928V94.712C257.023 94.632 257.063 94.592 257.143 94.592H257.911C257.991 94.592 258.031 94.632 258.031 94.712V97.748C258.031 98.02 258.127 98.224 258.319 98.36C258.519 98.496 258.783 98.564 259.111 98.564H259.255C259.415 98.564 259.535 98.6 259.615 98.672C259.695 98.736 259.735 98.848 259.735 99.008C259.735 99.216 259.695 99.352 259.615 99.416C259.543 99.472 259.423 99.5 259.255 99.5H258.991C258.735 99.5 258.511 99.448 258.319 99.344C258.127 99.24 257.979 99.084 257.875 98.876C257.675 99.292 257.259 99.5 256.627 99.5H255.691ZM257.119 93.404C257.039 93.404 256.999 93.364 256.999 93.284V92.408C256.999 92.328 257.039 92.288 257.119 92.288H257.935C258.015 92.288 258.055 92.328 258.055 92.408V93.284C258.055 93.364 258.015 93.404 257.935 93.404H257.119ZM261.282 94.592H262.35C262.958 94.592 263.454 94.764 263.838 95.108C264.222 95.452 264.414 95.992 264.414 96.728V97.448C264.414 97.512 264.41 97.576 264.402 97.64C264.402 97.704 264.402 97.768 264.402 97.832C264.418 98.08 264.522 98.264 264.714 98.384C264.914 98.504 265.17 98.564 265.482 98.564H265.614C265.774 98.564 265.894 98.6 265.974 98.672C266.054 98.736 266.094 98.848 266.094 99.008C266.094 99.216 266.054 99.352 265.974 99.416C265.902 99.472 265.782 99.5 265.614 99.5H265.362C265.098 99.5 264.854 99.444 264.63 99.332C264.414 99.212 264.262 99.04 264.174 98.816C264.038 99.072 263.85 99.252 263.61 99.356C263.37 99.452 263.062 99.5 262.686 99.5H259.158C258.838 99.5 258.678 99.34 258.678 99.02C258.678 98.82 258.718 98.696 258.798 98.648C258.87 98.592 258.99 98.564 259.158 98.564H262.314C262.538 98.564 262.718 98.548 262.854 98.516C262.99 98.476 263.094 98.416 263.166 98.336C263.238 98.248 263.286 98.136 263.31 98C263.334 97.864 263.346 97.692 263.346 97.484V96.74C263.346 95.932 262.89 95.528 261.978 95.528H260.046C259.966 95.528 259.926 95.488 259.926 95.408V94.736C259.926 94.696 259.938 94.66 259.962 94.628C259.994 94.588 260.018 94.56 260.034 94.544L262.662 91.448C262.71 91.392 262.762 91.38 262.818 91.412L263.394 91.892C263.458 91.94 263.474 91.996 263.442 92.06L261.282 94.592ZM269.239 99.584C268.863 99.584 268.531 99.532 268.243 99.428C267.955 99.316 267.711 99.144 267.511 98.912C267.343 99.168 267.127 99.332 266.863 99.404C266.599 99.468 266.355 99.5 266.131 99.5H265.615C265.295 99.5 265.135 99.34 265.135 99.02C265.135 98.82 265.175 98.696 265.255 98.648C265.327 98.592 265.447 98.564 265.615 98.564H266.215C266.303 98.564 266.391 98.548 266.479 98.516C266.567 98.476 266.647 98.416 266.719 98.336C266.791 98.248 266.847 98.136 266.887 98C266.935 97.856 266.959 97.68 266.959 97.472C266.951 97.392 266.947 97.316 266.947 97.244C266.947 97.164 266.947 97.08 266.947 96.992C266.947 96.072 267.151 95.408 267.559 95C267.967 94.584 268.527 94.376 269.239 94.376C269.951 94.376 270.511 94.584 270.919 95C271.327 95.408 271.531 96.072 271.531 96.992C271.531 97.08 271.527 97.168 271.519 97.256C271.519 97.344 271.515 97.428 271.507 97.508C271.515 97.916 271.595 98.196 271.747 98.348C271.907 98.492 272.075 98.564 272.251 98.564H272.599C272.759 98.564 272.879 98.6 272.959 98.672C273.039 98.736 273.079 98.848 273.079 99.008C273.079 99.216 273.039 99.352 272.959 99.416C272.887 99.472 272.767 99.5 272.599 99.5H272.335C272.223 99.5 272.103 99.496 271.975 99.488C271.847 99.472 271.719 99.444 271.591 99.404C271.471 99.364 271.355 99.308 271.243 99.236C271.131 99.156 271.035 99.052 270.955 98.924C270.755 99.156 270.511 99.324 270.223 99.428C269.935 99.532 269.607 99.584 269.239 99.584ZM269.239 95.312C268.791 95.312 268.463 95.46 268.255 95.756C268.055 96.052 267.955 96.464 267.955 96.992C267.955 97.568 268.055 97.988 268.255 98.252C268.463 98.516 268.791 98.648 269.239 98.648C269.687 98.648 270.011 98.516 270.211 98.252C270.419 97.988 270.523 97.568 270.523 96.992C270.523 96.464 270.419 96.052 270.211 95.756C270.011 95.46 269.687 95.312 269.239 95.312ZM272.588 99.5C272.428 99.5 272.308 99.472 272.228 99.416C272.148 99.36 272.108 99.248 272.108 99.08C272.108 98.88 272.148 98.744 272.228 98.672C272.3 98.6 272.42 98.564 272.588 98.564H273.416C273.616 98.564 273.76 98.52 273.848 98.432C273.944 98.336 273.992 98.168 273.992 97.928V94.712C273.992 94.632 274.032 94.592 274.112 94.592H274.88C274.96 94.592 275 94.632 275 94.712V97.988C275 98.508 274.892 98.892 274.676 99.14C274.46 99.38 274.1 99.5 273.596 99.5H272.588ZM274.568 101.732C274.488 101.732 274.448 101.692 274.448 101.612V100.736C274.448 100.656 274.488 100.616 274.568 100.616H275.384C275.464 100.616 275.504 100.656 275.504 100.736V101.612C275.504 101.692 275.464 101.732 275.384 101.732H274.568ZM273.104 101.732C273.024 101.732 272.984 101.692 272.984 101.612V100.736C272.984 100.656 273.024 100.616 273.104 100.616H273.92C274 100.616 274.04 100.656 274.04 100.736V101.612C274.04 101.692 274 101.732 273.92 101.732H273.104Z" fill="#667085"/>
</svg>
