<svg width="57" height="53" viewBox="0 0 57 53" fill="none" xmlns="http://www.w3.org/2000/svg">
<path d="M8 1H49C53.1421 1 56.5 4.35786 56.5 8.5V44.5C56.5 48.6421 53.1421 52 49 52H8C3.85786 52 0.5 48.6421 0.5 44.5V8.5C0.5 4.35786 3.85786 1 8 1Z" fill="white"/>
<path d="M8 1H49C53.1421 1 56.5 4.35786 56.5 8.5V44.5C56.5 48.6421 53.1421 52 49 52H8C3.85786 52 0.5 48.6421 0.5 44.5V8.5C0.5 4.35786 3.85786 1 8 1Z" stroke="#E4E7EC"/>
<path d="M40.9982 15.3398C41.0057 15.2258 40.9897 15.1114 40.9512 15.0038C40.9127 14.8962 40.8526 14.7976 40.7746 14.7141C40.6965 14.6306 40.6022 14.564 40.4974 14.5184C40.3926 14.4728 40.2796 14.4492 40.1653 14.449H16.8348C16.7204 14.449 16.6073 14.4726 16.5025 14.5181C16.3976 14.5636 16.3032 14.6302 16.2251 14.7137C16.147 14.7973 16.0869 14.8959 16.0485 15.0036C16.0101 15.1113 15.9942 15.2257 16.0019 15.3398C16.1977 18.0668 17.28 20.655 19.0838 22.7096C20.8875 24.7643 23.3137 26.1726 25.9924 26.72V37.716C25.9924 37.8747 26.0377 38.0301 26.1229 38.164C26.2081 38.2979 26.3296 38.4047 26.4733 38.472C26.6171 38.5393 26.777 38.5643 26.9344 38.544C27.0917 38.5237 27.2401 38.459 27.362 38.3574L30.7026 35.5736C30.7968 35.4954 30.8725 35.3973 30.9245 35.2865C30.9765 35.1756 31.0033 35.0547 31.0032 34.9322V26.72C33.6828 26.1737 36.1101 24.7657 37.9148 22.711C39.7194 20.6562 40.8023 18.0675 40.9982 15.3398V15.3398Z" stroke="#5D5A88" stroke-width="2" stroke-linecap="round" stroke-linejoin="round"/>
</svg>
