<svg width="21" height="21" viewBox="0 0 21 21" fill="none" xmlns="http://www.w3.org/2000/svg">
<path d="M17.4572 1.73065L2.26243 6.79557C2.10815 6.84786 1.97222 6.94351 1.87089 7.07106C1.76957 7.19861 1.70716 7.35266 1.69113 7.51476C1.67509 7.67687 1.70612 7.84016 1.7805 7.98509C1.85487 8.13001 1.96944 8.25043 2.11048 8.33193L7.59748 11.4637V17.7274C7.59739 17.9084 7.65568 18.0847 7.7637 18.2301C7.87173 18.3754 8.02373 18.4821 8.19716 18.5342C8.37058 18.5863 8.55619 18.5811 8.72644 18.5194C8.8967 18.4577 9.04252 18.3428 9.14228 18.1916L12.0799 13.7852L17.3052 16.7735C17.4341 16.8456 17.5796 16.8829 17.7273 16.8817C17.8749 16.8806 18.0198 16.841 18.1475 16.7669C18.2753 16.6928 18.3815 16.5867 18.4559 16.4591C18.5302 16.3315 18.57 16.1867 18.5715 16.0391V2.5326C18.5706 2.39881 18.5381 2.26712 18.4767 2.14826C18.4153 2.02939 18.3267 1.92671 18.2181 1.84855C18.1095 1.7704 17.984 1.71899 17.8517 1.6985C17.7195 1.67801 17.5843 1.68903 17.4572 1.73065ZM11.0669 12.2741L9.28578 14.9417V11.4047L12.3838 9.19297L11.0669 12.2741Z" fill="white"/>
</svg>
