<svg width="17" height="16" viewBox="0 0 17 16" fill="none" xmlns="http://www.w3.org/2000/svg">
<path d="M0.87222 15.6739C1.04607 15.7457 1.23237 15.7824 1.42043 15.7819C1.6059 15.7828 1.78968 15.7466 1.96088 15.6752C2.13209 15.6039 2.28725 15.499 2.41719 15.3666L4.49375 13.29H12.4595C13.561 13.29 14.6173 12.8525 15.3962 12.0736C16.175 11.2947 16.6126 10.2384 16.6126 9.1369V4.15314C16.6126 3.05166 16.175 1.99529 15.3962 1.21643C14.6173 0.437561 13.561 0 12.4595 0H4.1532C3.05172 0 1.99535 0.437561 1.21649 1.21643C0.437623 1.99529 6.16917e-05 3.05166 6.16917e-05 4.15314V14.3615C-0.0025714 14.6425 0.0791387 14.9177 0.234624 15.1517C0.390109 15.3856 0.612217 15.5676 0.87222 15.6739ZM1.66132 4.15314C1.66132 3.49225 1.92385 2.85843 2.39117 2.39111C2.85849 1.92379 3.49231 1.66125 4.1532 1.66125H12.4595C13.1204 1.66125 13.7542 1.92379 14.2215 2.39111C14.6888 2.85843 14.9514 3.49225 14.9514 4.15314V9.1369C14.9514 9.79779 14.6888 10.4316 14.2215 10.8989C13.7542 11.3662 13.1204 11.6288 12.4595 11.6288H4.1532C4.04388 11.6282 3.93552 11.6491 3.83431 11.6904C3.73311 11.7318 3.64107 11.7927 3.56345 11.8697L1.66132 13.7801V4.15314Z" fill="#464255"/>
</svg>
